/* XPM */
static char * Orange_xpm[] = {
"64 64 256 2",
"  	c None",
". 	c #88A376",
"+ 	c #D8E7BC",
"@ 	c #FDE1AF",
"# 	c #F5F7DA",
"$ 	c #F4F0C5",
"% 	c #FDEFBA",
"& 	c #F5FBEC",
"* 	c #F4F2D0",
"= 	c #F5F9E3",
"- 	c #FEE89F",
"; 	c #FCCA87",
"> 	c #F2CB7E",
", 	c #F9D596",
"' 	c #9FC083",
") 	c #F9E0A5",
"! 	c #F9DE84",
"~ 	c #DAB083",
"{ 	c #FDF4AD",
"] 	c #A6C69E",
"^ 	c #F9EE92",
"/ 	c #BDDAA5",
"( 	c #BDE093",
"_ 	c #FCE084",
": 	c #BAD0B2",
"< 	c #E7CCA7",
"[ 	c #E6C99B",
"} 	c #486C29",
"| 	c #A79452",
"1 	c #C7A484",
"2 	c #FF802B",
"3 	c #FF8A3F",
"4 	c #FF7C27",
"5 	c #FF7524",
"6 	c #FF8130",
"7 	c #FF7B2B",
"8 	c #FF6712",
"9 	c #FF7827",
"0 	c #FF8335",
"a 	c #E3641D",
"b 	c #FF832E",
"c 	c #FE7A23",
"d 	c #F76B1A",
"e 	c #D05518",
"f 	c #FF771F",
"g 	c #FF741D",
"h 	c #FF9138",
"i 	c #FF7D32",
"j 	c #F06519",
"k 	c #FE7121",
"l 	c #FF8739",
"m 	c #DE601C",
"n 	c #FF7930",
"o 	c #FF6B12",
"p 	c #CA4E12",
"q 	c #D35A1B",
"r 	c #FB6F1D",
"s 	c #C54F15",
"t 	c #FF823C",
"u 	c #FF903E",
"v 	c #F2681B",
"w 	c #F56916",
"x 	c #FF8F46",
"y 	c #FF752C",
"z 	c #FF8B36",
"A 	c #FA6514",
"B 	c #FE8441",
"C 	c #F96C1D",
"D 	c #FE8A46",
"E 	c #FC7325",
"F 	c #3E7A28",
"G 	c #FE7D38",
"H 	c #FD721C",
"I 	c #FF904E",
"J 	c #F46713",
"K 	c #D55011",
"L 	c #FF954A",
"M 	c #D04E11",
"N 	c #F97023",
"O 	c #EE6A21",
"P 	c #EE631B",
"Q 	c #D95614",
"R 	c #E55811",
"S 	c #FF7F22",
"T 	c #FF912D",
"U 	c #FF8F55",
"V 	c #F46418",
"W 	c #E9651D",
"X 	c #CA5419",
"Y 	c #EC681E",
"Z 	c #FF671A",
"` 	c #EF5F11",
" .	c #FF8A2E",
"..	c #F36210",
"+.	c #FF8A4D",
"@.	c #FF7111",
"#.	c #DF5913",
"$.	c #F16D20",
"%.	c #D95D1B",
"&.	c #FFA572",
"*.	c #FE7B1F",
"=.	c #FFA26B",
"-.	c #569040",
";.	c #5A9247",
">.	c #F56E22",
",.	c #FF620C",
"'.	c #FE9651",
").	c #FF9A2F",
"!.	c #FEA877",
"~.	c #E7611D",
"{.	c #E45E18",
"].	c #FD5D0F",
"^.	c #EC5B12",
"/.	c #FF6D08",
"(.	c #FE7B13",
"_.	c #FE9961",
":.	c #FE8727",
"<.	c #FF9457",
"[.	c #4F8B3B",
"}.	c #FF9535",
"|.	c #FEAC2D",
"1.	c #FE9C68",
"2.	c #FE8549",
"3.	c #FEAC7D",
"4.	c #FE8E20",
"5.	c #367322",
"6.	c #FF945D",
"7.	c #FEB730",
"8.	c #FEB184",
"9.	c #478430",
"0.	c #FA6D16",
"a.	c #FF9E62",
"b.	c #F5681F",
"c.	c #F75B13",
"d.	c #FF6D1B",
"e.	c #FF9542",
"f.	c #438328",
"g.	c #FF9A59",
"h.	c #FEA326",
"i.	c #FE5611",
"j.	c #5E9849",
"k.	c #FE8408",
"l.	c #FF8F0E",
"m.	c #FE8520",
"n.	c #E86622",
"o.	c #FF8616",
"p.	c #EB6117",
"q.	c #437A30",
"r.	c #FFA231",
"s.	c #FEAC1F",
"t.	c #FE9923",
"u.	c #FE6017",
"v.	c #DF4F10",
"w.	c #659F4D",
"x.	c #FE7D42",
"y.	c #FC6E2C",
"z.	c #F16A2A",
"A.	c #FE753A",
"B.	c #509721",
"C.	c #EE6624",
"D.	c #FE7708",
"E.	c #FDB822",
"F.	c #FFC424",
"G.	c #E96828",
"H.	c #FDD121",
"I.	c #4A8B32",
"J.	c #569933",
"K.	c #2A6C16",
"L.	c #498B20",
"M.	c #F7520E",
"N.	c #F78116",
"O.	c #E36527",
"P.	c #F4720C",
"Q.	c #58A728",
"R.	c #FC6E36",
"S.	c #6EA751",
"T.	c #64B02E",
"U.	c #538C29",
"V.	c #65A817",
"W.	c #FD9F0C",
"X.	c #77A724",
"Y.	c #E05C25",
"Z.	c #FE6423",
"`.	c #FCC336",
" +	c #EB5211",
".+	c #69AD3F",
"++	c #61A238",
"@+	c #77B24D",
"#+	c #F07B1A",
"$+	c #417919",
"%+	c #7AB439",
"&+	c #F18F26",
"*+	c #F87A2B",
"=+	c #346323",
"-+	c #F6D830",
";+	c #D55827",
">+	c #246009",
",+	c #328320",
"'+	c #6BBE35",
")+	c #EEB630",
"!+	c #FCAD41",
"~+	c #80AD5C",
"{+	c #FE9E3A",
"]+	c #ECA41B",
"^+	c #E4E88B",
"/+	c #317C0F",
"(+	c #3D6E2E",
"_+	c #F28D11",
":+	c #F7D84C",
"<+	c #8FBB65",
"[+	c #376A0E",
"}+	c #44A22B",
"|+	c #EFB713",
"1+	c #DD7D17",
"2+	c #BCDB69",
"3+	c #78CC3E",
"4+	c #629720",
"5+	c #A1C558",
"6+	c #50782C",
"7+	c #D2E27A",
"8+	c #8CB94A",
"9+	c #2B4F1C",
"0+	c #E17F2A",
"a+	c #3B8F15",
"b+	c #A7D066",
"c+	c #97BC75",
"d+	c #E1963F",
"e+	c #6D8E5C",
"f+	c #FBA26E",
"g+	c #E9BE66",
"h+	c #CD9154",
"i+	c #CF7D3B",
"j+	c #DB9B1C",
"k+	c #F1C742",
"l+	c #DFAB61",
"m+	c #ECDA6E",
"n+	c #9C8C2A",
"o+	c #DCAB43",
"p+	c #B8831F",
"q+	c #9E521C",
"r+	c #FDDD6A",
"s+	c #746912",
"t+	c #A8C098",
"u+	c #655203",
"v+	c #979D26",
"w+	c #4C5D0B",
"x+	c #B94518",
"y+	c #F6E5B2",
"z+	c #FBC96C",
"A+	c #E8CD9B",
"B+	c #857B23",
"C+	c #FDB45E",
"D+	c #D4BC53",
"E+	c #FAF7D4",
"F+	c #C8EABB",
"G+	c #F0FEF6",
"                                                                                                                                ",
"                                                                                                                                ",
"                                                                                                                                ",
"                                                                                                                                ",
"                                                                                                                                ",
"                                                                                                                                ",
"                                                                                                                                ",
"                                                                                                                                ",
"                                                                                                                                ",
"                                                                                                                                ",
"                                                                                                                                ",
"                                                              c+2+.                                                             ",
"                                          @+S.S.w.j.;.-.      5+^+2+                                                            ",
"                                      @+S.S.w.j.j.;.-.[.[.  e+5.w.~+                                                            ",
"                                    <+.+w.j.;.j.;.-.[.U..+.+>+=+(+.                                                             ",
"                                    T.J.[.-.-.;.-.w..+F q.F >+(+=+                                                              ",
"                                  X.Q.I.[.[.[.j.5.q.q.q.9.G+>+,+,+  8+                                                          ",
"                                  V.B.f.[.[.F F q.q.9.9.++n+K.(+9.T.V.                                                          ",
"                                  B.L.f.K.5.$+f.6+I.J.s }+[+[+F F T.L.p+$+D+y+                                                  ",
"                                  B.$+5.f.f.L.J.Q.p+v.,+/+Q.Q.'+3+3+J.u+*.o.t.s.|+                                              ",
"                                X.B.4+V.T.v+1+0.c P.H m.m.0 z &+X a ` k 6 2  .h T |.`.                                          ",
"                                        o.g ].u.K G.b.z.y 5 5 G :.2 7 y R.y 0 l z ).!+E.                                        ",
"                                      4.,.u.` V C.{.G.z.y 5 n x.G i B G R.R.G B 3 u r.|.m+                                      ",
"                                    t.0.8 b.P n.W b.R.y.n n t t t B D B x.x.x.2.3 u h r.s.^                                     ",
"                                  g+#+d.w ~.~.O b.y.n y G t x.B U 6.1.g._.6.+.U +.3 u }.!+7.                                    ",
"                                  D./.Z n.O.j O N E 5 y G t B 2._._.+.!.&.6.1.U D L u h }.!+H.                                  ",
"                                h.d.o j ~.W v Y.k y 9 7 i t B D 1.6.x.!.!.B 6._.+.t L h &+s.!+,                                 ",
"                                o.Z Z.P P O N z.k 9 7 n G 0 3 I _.&.1.3.8.a.1.=.'.x L u }.).|.H.                                ",
"                              W.@.Z A W v C r E 5 9 7 G G t D U 6.=.3.8.8.8.3.=._.'.L e.}.).|.F.r+                              ",
"                              o.o Z V W v C k g c 9 7 i 6 t D I +.6.!.!.=.8.!.a.g.'.L u h }.r.|.:+                              ",
"                            r+N.o o P P b.d H f 5 c 4 6 i l D U z.+.!.<.3 3.&.g.B '.L e.u h ).s.H.                              ",
"                            E.D.o A P Y n.C g f 5 c 4 2 b 0 3 U B I =.a.'.!.=.g.B '.L u 3 z ).|.`.:+                            ",
"                            W.d.o Z j C.C.r f 9 y c 4 6 6 b l I <.<.<.&.!.=._.g.g.'.L h z z ).h.E.H.                            ",
"                            W.o 8 d j v d r g c 9 c S 6 *+0 0 3 I I U <.g.g.'.'.'.L u u  .T T ).E.H.                            ",
"                            l.8 8 A j w d r g f *.c 7 6 0 6 0 l 3 3 t +.L L x x x x h z z  .T t.|.`.                            ",
"                            l.D.8 V v w d v H g N c S 2 b b b 0 l l l D x x u 3 3 3 3 z  . . .T |.F.                            ",
"                            l.g o A J P.d C H f f 5 *.c 2 2 b 6 0 l 3 3 3 3 3 z t G 0  .b :. .T h.F.                            ",
"                            W./.o 8 J w w 0.r H N G.f c 4 2 4 2 2 6 0 0 0 0 0 0 6 0 0 b b m.4.4.).F.                            ",
"                            s.d./.8 ..J w w C r k >.5 5 4 9 7 7 n 2 6 i G 6 b 6 6 6 b 2 S :.:.:.h.F.                            ",
"                              N.@.8 ^.J w w d d 0.H g 5 5 f 7 i n 4 7 i i 7 2 7 7 4 4 c 7 S m.4.h.                              ",
"                              :.o 8 R ..J v V v d 0.r k k H c c y 4 9 7 n 7 9 4 7 n 9 c y *.m.:.W.                              ",
"                              k.@.8 c...J J v j v $.d d r r N k E E E 9 y y 5 5 y y c H 5 *.S m.|+                              ",
"                              C+(.,.8 c.j j j P j j v C.Y $.>.>.>.>.N N N E E N N N N $.g *.*.4.                                ",
"                                k./.w ..^.` ` p.P W W O.a W Y Y O z.z.$.$.$.$.z.$.$.O $.H k S s.                                ",
"                                l.P.8 ].^.R R R p.{.{.{.a a a a W G.z.n.G.n.O.G.n.a G.$.k 5 o.                                  ",
"                                  k./.,.^.R R R #.#.m Y.m %.m {.a a a a a a m m m a n.w y.5 g+                                  ",
"                                  j+N.8 c.R #.K K K #.Q Q Q q Q %.%.%.%.%.%.%.q %.a W Z o #+                                    ",
"                                    o.@.,.c.R Q K M e e e e e K q q q q q q q q %.a b.C f                                       ",
"                                      _+Z.,.c. +K p M p X X ;+e X s X X X X ;+X Y.a $.2                                         ",
"                                        S 8 ].c. +v.M p p p s s s X X x+X e X Q #.P O                                           ",
"                                          m.8 ].c. +v.M M p p p p s s p e K R P u.0+                                            ",
"                                              D.d u.c.;+M K K K K K e #.c.` i.,.                                                ",
"                                                    1+8 u.].,.].].].i...1+                                                      ",
"                                                                                                                                ",
"                                                                                                                                ",
"                                                                                                                                ",
"                                                                                                                                ",
"                                                                                                                                ",
"                                                                                                                                ",
"                                                                                                                                ",
"                                                                                                                                ",
"                                                                                                                                ",
"                                                                                                                                ",
"                                                                                                                                "};
