/* XPM */
static char * Peach_xpm[] = {
"64 64 256 2",
"  	c None",
". 	c #F9EDD9",
"+ 	c #FEF6EA",
"@ 	c #F2E1C6",
"# 	c #FDF7E8",
"$ 	c #F7E9D4",
"% 	c #F4E5CD",
"& 	c #FCF1E1",
"* 	c #FDF4E5",
"= 	c #F9EFDD",
"- 	c #F2E4C0",
"; 	c #F3D9B7",
"> 	c #EDE2AB",
", 	c #FFA568",
"' 	c #FFA465",
") 	c #FF9A5F",
"! 	c #FFA062",
"~ 	c #FFAF72",
"{ 	c #FF955A",
"] 	c #FFB076",
"^ 	c #FFB379",
"/ 	c #FFA96D",
"( 	c #FFB77B",
"_ 	c #FF9D61",
": 	c #FFA96A",
"< 	c #FFC38B",
"[ 	c #FFD3A2",
"} 	c #FFBB7F",
"| 	c #FF975D",
"1 	c #FFAD6D",
"2 	c #FFDAAD",
"3 	c #FFA165",
"4 	c #FFAB71",
"5 	c #FFC186",
"6 	c #FFBD82",
"7 	c #FFAF8C",
"8 	c #FFCA98",
"9 	c #FF9D67",
"0 	c #FFB780",
"a 	c #FFC68E",
"b 	c #FFCF97",
"c 	c #FFB269",
"d 	c #FFB589",
"e 	c #FFAE86",
"f 	c #FFD4A9",
"g 	c #FFB07D",
"h 	c #FFDEB1",
"i 	c #FFB390",
"j 	c #FF9159",
"k 	c #FFA06C",
"l 	c #FFD6A4",
"m 	c #FEBA8F",
"n 	c #FFCE9C",
"o 	c #FFB282",
"p 	c #FED87F",
"q 	c #FF8853",
"r 	c #FFB76B",
"s 	c #FFA378",
"t 	c #FFE1B8",
"u 	c #FFCB93",
"v 	c #FFAC76",
"w 	c #FECE78",
"x 	c #FCB67A",
"y 	c #FF8E56",
"z 	c #F9E186",
"A 	c #FC985C",
"B 	c #FED7B2",
"C 	c #FFC09C",
"D 	c #FFDDBE",
"E 	c #FEB971",
"F 	c #FED47A",
"G 	c #FFC693",
"H 	c #FFA984",
"I 	c #FFB595",
"J 	c #FFCA8F",
"K 	c #FEC4A0",
"L 	c #FFD9A8",
"M 	c #FFAA7E",
"N 	c #FFBC76",
"O 	c #FFECCB",
"P 	c #FFAA63",
"Q 	c #FEC471",
"R 	c #FFD281",
"S 	c #FF9F73",
"T 	c #FFB79C",
"U 	c #FFD39C",
"V 	c #FC9358",
"W 	c #FFB471",
"X 	c #FFBF94",
"Y 	c #FFD0A0",
"Z 	c #FFC974",
"` 	c #FDDF81",
" .	c #FCB176",
"..	c #FFBB98",
"+.	c #FED1B0",
"@.	c #FF814F",
"#.	c #FFBE6E",
"$.	c #FBA96E",
"%.	c #F6DE81",
"&.	c #FFEED1",
"*.	c #FEC37A",
"=.	c #FEE4BE",
"-.	c #E5E49E",
";.	c #FBA266",
">.	c #FBA768",
",.	c #F3E48B",
"'.	c #FFAD68",
").	c #FAD19F",
"!.	c #FF875E",
"~.	c #FEBBA2",
"{.	c #FED9BA",
"].	c #FB9C5F",
"^.	c #FEDB85",
"/.	c #FBA061",
"(.	c #FEC59A",
"_.	c #FF9B59",
":.	c #FFBC87",
"<.	c #FFCA7F",
"[.	c #F6DF88",
"}.	c #FFC7AF",
"|.	c #FBC18E",
"1.	c #F6F3AA",
"2.	c #FEEC96",
"3.	c #FE8359",
"4.	c #FFC0A5",
"5.	c #FF9A6E",
"6.	c #FCD7AB",
"7.	c #FFC7A7",
"8.	c #FC9A64",
"9.	c #FFF1D7",
"0.	c #FF9768",
"a.	c #FADC7D",
"b.	c #FBBD84",
"c.	c #FE8F5E",
"d.	c #FAE48B",
"e.	c #EDEA9C",
"f.	c #FFC9A0",
"g.	c #FEDF8D",
"h.	c #FBC893",
"i.	c #FFCDA9",
"j.	c #FFA570",
"k.	c #FE9363",
"l.	c #FFE9C7",
"m.	c #FEB098",
"n.	c #FBAD72",
"o.	c #FDAE65",
"p.	c #FAD375",
"q.	c #FFA47F",
"r.	c #FBC288",
"s.	c #FAAB89",
"t.	c #FEE88F",
"u.	c #FEA25A",
"v.	c #F9E89C",
"w.	c #FCA778",
"x.	c #FEE186",
"y.	c #EFEDA4",
"z.	c #FBBC7E",
"A.	c #FFA560",
"B.	c #F8E593",
"C.	c #FAC88B",
"D.	c #FFDFC4",
"E.	c #DEDD9B",
"F.	c #F4F3B5",
"G.	c #FFD0BB",
"H.	c #F5DA78",
"I.	c #F7D287",
"J.	c #FEE398",
"K.	c #EFE795",
"L.	c #FCA982",
"M.	c #EAE9A6",
"N.	c #FC8650",
"O.	c #FCCF98",
"P.	c #FB9B6D",
"Q.	c #FAC394",
"R.	c #F9AD7B",
"S.	c #FEF59F",
"T.	c #FAD5A5",
"U.	c #F3EE9F",
"V.	c #F9B792",
"W.	c #FDE5C4",
"X.	c #F0EEAE",
"Y.	c #FF8D66",
"Z.	c #FAD879",
"`.	c #FCF5BA",
" +	c #E7E495",
".+	c #FAAF8F",
"++	c #FEE1CB",
"@+	c #FBB585",
"#+	c #FDBFAC",
"$+	c #FDDDB6",
"%+	c #FECBB6",
"&+	c #F9C67B",
"*+	c #FEE5D0",
"=+	c #FB8C54",
"-+	c #FEE4A9",
";+	c #FAC8A9",
">+	c #F5EE99",
",+	c #FABE72",
"'+	c #FEF9A8",
")+	c #FDF9B3",
"!+	c #FED58E",
"~+	c #FF7A49",
"{+	c #FBBB96",
"]+	c #ECE38E",
"^+	c #F0E086",
"/+	c #FDF2DE",
"(+	c #FEDB96",
"_+	c #FEDEA0",
":+	c #FB7B4C",
"<+	c #FACB9A",
"[+	c #F6F4C2",
"}+	c #FED9C9",
"|+	c #F9B66E",
"1+	c #FFEE9D",
"2+	c #FBDCC2",
"3+	c #FCF9C1",
"4+	c #FAA572",
"5+	c #FCA95E",
"6+	c #E2E1A9",
"7+	c #FCD0A9",
"8+	c #F9B79C",
"9+	c #F7A681",
"0+	c #F8F3A1",
"a+	c #FFEFB2",
"b+	c #FB7E54",
"c+	c #FDEEA8",
"d+	c #ECEBBC",
"e+	c #F99D73",
"f+	c #FD936D",
"g+	c #F8B78A",
"h+	c #F8A27A",
"i+	c #FABE9E",
"j+	c #F3D2C2",
"k+	c #FEE8B9",
"l+	c #F7EC90",
"m+	c #EFEDCE",
"n+	c #F6C8B4",
"o+	c #FBE8D7",
"p+	c #E2E1BB",
"q+	c #FDD3C3",
"r+	c #FE9875",
"s+	c #F98C5D",
"t+	c #F5DDD1",
"u+	c #F7D2B8",
"v+	c #F69663",
"w+	c #D6D6AE",
"x+	c #F9F8D0",
"y+	c #FA7546",
"z+	c #F6C0A5",
"A+	c #EBD793",
"B+	c #F1AC6F",
"C+	c #E2C183",
"D+	c #EDC6B4",
"E+	c #E9B47B",
"F+	c #EFD096",
"G+	c #ECDBA8",
"                                                                                                                                ",
"                                                                                                                                ",
"                                                                                                                                ",
"                                                                                                                                ",
"                                                                                                                                ",
"                                                                                                                                ",
"                                                                                                                                ",
"                                                                                                                                ",
"                                                                                                                                ",
"                                                                                                                                ",
"                                                                                                                                ",
"                                                                                                                                ",
"                                                                                                                                ",
"                                                                                                                                ",
"                                                                                                                                ",
"                                                      j+j+}+t+t+      t+                                                        ",
"                                              n+4.~.i+7.~.~.u+G.~.}.}.%+G.{.D.++                                                ",
"                                            }.T T .+~.{+7.{+~.m.~.4.7.i.+.{.D 2+D.o+                                            ",
"                                        #+m m.T s...m I .+i+T T I V.{++.7.;+{.{.W.2+++/+                                        ",
"                                      ~.I s.7 9+V.g+d {+C m.I 7 I X (.(.C f B B B $+D 2+9.                                      ",
"                                    z+i e q.9+g o :.C X i 7 I s.@+d X 8 Q.<+6.B h B $+W.*+9.                                    ",
"                                  7.i 9+w.s M 4+R.0 o @+7 7 e R.R.0 Q.Q.(.<+l 2 2 2 +.t D O 9.                                  ",
"                                D+I 9+e s 4+8.;.x o g H q.S v n.g 0 8 |.|.Q.b L ).f B 6.$+l.&.9.                                ",
"                                ..7 H s k 9 8.v } :.:.7 S k 4 $.v g r.< a h.J O.Y U f h 2 =.l.&.                                ",
"                              %+g+q.S S 9 ) 4 x g < e q.P.S $.4 $.x < J 8 n Q.l T.2 ).2 B t =.l.&.                              ",
"                              Q.s.H 5.| k 4 ^  .0 < d s k _ >./ / } b.C.G U U T.n T.).).2 2 $+k+O                               ",
"                              {+s s 5.) ].: ^  .< :.7 5.A 9 4 ~ / ( 6 C.8 n b l f T.).n Y l t k+l.9.                            ",
"                            ;+d q.S 0.8.]./ ( x b.b.q.k.| A / ~ $.( :.< O.l 8 Y i.l u <+<+[ 2 t D.9.                            ",
"                            {+M P.5.k ) ! $. .( 5 @+S c.V ].1 4 >.v 6 6 b n b [ h.[ |.n <+8 T.h =.O                             ",
"                          j+V.e+f+k.9 j _ 4 ^ ( z.m 5.c.{ ) / j.' v 5 6 C.b C.[ 8 ).C.C.5 8 [ T.=.l.                            ",
"                          u+7 Y.3.k.j y ! ~ ( x W e 5.k.j ) : 3 3 4 } x C.J |.8 < J b.< b.Q.l 2 6.D o+                          ",
"                          +.s.f+Y.b+@.y _ 1 1 1 3 q.0.c.j | /.| | / v ] z.a < < < J 6 } < < n f 7+{.++                          ",
"                          K 9+f+!.b+:+y A , , ' | L.!.q N.| ) { V , / ~ ^ 5 5 } 6 5 6 } 6 0 @+8 i.{.*+                          ",
"                          f.9+q.!.3.~+y ) /.' /._.h+3.@.q { A | A /.1 $.$.~ 6 ( 6 6 x ~ ] g @+(.i.+.++                          ",
"                          (.s.M 5.c.:+q | , , ' _.9+b+~+y | A V | ]., ~ , , ] ^ } }  .:  .R.d K K +.2+                          ",
"                          n+X 0 ~ A N.N.{ ].].;._ h+b+@.=+| V V ) _ , : , ! 1 >.v 0 $.4 v v m C i++.2+                          ",
"                            U I.#.r ! j _.].! 3 _.s.3.@.N.) A A V A ' 1 3 3 1 ! 4 ^ $.$.v d g+f.6.$+++                          ",
"                            _+B.Z.Z o._._.' '.' A E+v+=+V 5+P '.u./.: >.].! >.3 : $.$.k m :.m <+h [+                            ",
"                            a+2.` w r A.A.P c '._.m w.V A.c #.#.r r r |+A k V { ' / 8.4+o @+8 _+a+[+                            ",
"                            [+S.t.p Q c A.'.c '.5+X o >.c #.Z Z w w <.<.o.1 | V 3 9 ] s R.J _+a+`.m+                            ",
"                              `.1+` Z #.u.P r r E  .O. .#.Q F F p Z.p R Q <.1 _ ) 8.n.0 < (+c+`.F.                              ",
"                              /+S.2.^.Z o.o.r E E ~ U 5 Q w p.Z.Z.a.^.Z.w R &+,+E N R (+(+v.1.F.                                ",
"                                3+'+2.p E o.c E N ,+_+r.&+p.p Z.a.H.` ` ^.Z.Z.F R I.g.g.v.y.X.d+                                ",
"                                  `.S.t.w ,+c  .N E  ._+!+F p H.a.%.` d.%.z x.` [.[.v.v.e.M.6+                                  ",
"                                      )+d.^.<.*.,+x N a+_+g.g.` %.z a.%.[.%.d.d.,.K.e.e.-.6+                                    ",
"                                        1.0+J.^.C.C.r.&+a+v.t.t.t.d.%.[.,.[.^+^+]+]+ +E.E.                                      ",
"                                            1.>+g.I.I.C.F+)+0+>+>+l+l+,.]+]+]+]+ +-.E.6+                                        ",
"                                                  y.y.        F.1.U.U.e.e.e.e. +-.6+                                            ",
"                                                                  m+d+d+d+p+                                                    ",
"                                                                                                                                ",
"                                                                                                                                ",
"                                                                                                                                ",
"                                                                                                                                ",
"                                                                                                                                ",
"                                                                                                                                ",
"                                                                                                                                ",
"                                                                                                                                ",
"                                                                                                                                ",
"                                                                                                                                ",
"                                                                                                                                ",
"                                                                                                                                ",
"                                                                                                                                ",
"                                                                                                                                ",
"                                                                                                                                "};
